<svg xmlns="http://www.w3.org/2000/svg" viewBox="0 0 500 500"><path fill="#c2d2aa" d="M250.785 118.75c-.838.963-1.299 2.375-1.025 3.139.279.775.05 1.111-.517.761-.559-.345-1.572.042-2.252.861-.68.819-.94 1.489-.578 1.489.361 0 .176.9-.413 2-.699 1.307-2.011 1.959-3.785 1.882l-2.715-.119 3-.763c2.843-.723 2.866-.77.45-.882-1.403-.065-3.06-.628-3.683-1.251-1.651-1.651-3.971-.392-3.791 2.056.226 3.067 2.198 4.803 3.724 3.277.66-.66 2.364-1.2 3.787-1.2 1.939 0 3.52-1.251 6.319-5l3.733-5h19.365c19.245 0 19.376.015 20.912 2.359 1.067 1.629 2.83 2.531 5.697 2.916 2.284.306 4.242.707 4.353.891.11.184 4.348 4.893 9.417 10.465l9.217 10.13v11.62c0 10.952-.115 11.619-2 11.619-1.867 0-2-.667-2-10.043v-10.043l-4.622-4.941c-2.542-2.717-4.956-4.734-5.366-4.48-.41.253-1.592-.542-2.628-1.767L303.5 136.5l2.25 1.905c3.73 3.158 2.528.272-1.542-3.702-2.888-2.82-4.617-3.705-7.25-3.71-2.826-.005-3.893-.645-5.837-3.5L288.742 124h-15.197c-14.917 0-15.24.046-17.545 2.5-1.292 1.375-1.985 2.5-1.539 2.5.445 0-.401.951-1.879 2.114-1.478 1.163-2.446 2.356-2.15 2.651.295.296-.244 1.13-1.198 1.854-1.838 1.396-9.234 1.902-9.234.631 0-.412-1.022-.75-2.272-.75-1.786 0-2.249.535-2.163 2.5.073 1.657.67 2.472 1.772 2.417.915-.046 3.834-.159 6.488-.25 4.665-.161 5.001-.383 10.1-6.667l5.273-6.5 14.151.007 14.151.007 2.379 3.493c1.987 2.918 2.98 3.493 6.027 3.493 3.311 0 4.364.791 11.371 8.541l7.723 8.541v9.459c0 5.202-.421 9.459-.935 9.459-3.225 0-6.099 2.067-5.201 3.741.88 1.64.145 1.738-10.907 1.451-8.654-.225-11.729-.629-11.402-1.5.247-.656-2.063-4.004-5.133-7.442L275.84 160h-20.432l-6.454 7.216c-3.55 3.969-6.332 7.599-6.182 8.067.15.467-.733.708-1.962.534-1.799-.255-2.236.17-2.244 2.183-.013 3.165 3.399 3.454 4.914.416.572-1.147 3.788-5.084 7.147-8.75l6.108-6.666h17.91l5.69 6.441 5.691 6.442 12.237.458c6.73.252 12.822.579 13.537.726 2.145.439 1.012 5.377-1.3 5.666l-2 .25 2-.921c1.646-.758 1.7-.934.309-.992-.93-.038-1.969.38-2.309.93-.358.579-5.809 1-12.955 1h-12.338l-3.073-3.5c-2.96-3.371-3.329-3.5-10.044-3.5-3.835 0-7.25-.45-7.59-1-.34-.55-1.379-.993-2.309-.985-1.457.014-1.484.15-.191.985 1.213.784 1.069.972-.75.985-2.538.017-2.979 2.165-.814 3.962 1.046.868 1.98.901 3.434.122 4.791-2.564 13.485-1.33 17.13 2.431l3.392 3.5h12.745c7.418 0 13.003.418 13.363 1 .34.55 1.379.968 2.309.93 1.391-.058 1.337-.234-.309-.992l-2-.921 2 .25c2.312.289 3.441 5.219 1.3 5.679-.715.154-8.279.475-16.809.713l-15.509.434-3.437-3.546c-1.891-1.951-4.159-3.547-5.041-3.547-.882 0-2.144-.54-2.804-1.2-1.48-1.48-3.412.12-3.885 3.218-.395 2.587 2.296 3.706 4.939 2.055 1.747-1.09 2.449-.792 5.765 2.446l3.777 3.688 14.192-.152c9.503-.101 14.653.232 15.589 1.009.769.638 2.078.899 2.91.579 1.159-.444 1.509.173 1.498 2.638-.009 1.859-.337 2.713-.777 2.022-.502-.79-1.263-.88-2.234-.266-.811.513-9.012.939-18.224.948-16.088.014-16.75-.064-16.75-1.985 0-1.1-.45-2-1-2s-1.032-.787-1.07-1.75c-.06-1.484-.191-1.446-.865.25l-.795 2-.519-2c-.423-1.632-.54-1.678-.635-.25-.064.963-.566 1.75-1.116 1.75-.55 0-1.032-.787-1.07-1.75-.06-1.496-.195-1.46-.93.25-.821 1.911-.863 1.915-.93.083-.091-2.486-.922-1.634-1.389 1.425-.2 1.312-.998 2.557-1.773 2.765-1.093.294-1.072.142.092-.682.923-.652 1.042-1.066.309-1.076-1.823-.023-2.729 2.107-1.278 3.004.708.438 1.891.564 2.628.281.867-.332 1.341.252 1.341 1.652 0 1.191-.412 1.912-.915 1.601-.503-.311-1.143 0-1.423.691-.386.95-.768.891-1.571-.244-.905-1.28-1.063-1.226-1.076.367-.011 1.394.506 1.73 2.042 1.328 1.317-.344 1.905-.116 1.635.634-.534 1.482 1.066 4.671 2.343 4.671.531 0 .965-.675.965-1.5s.45-1.5 1-1.5 1 .675 1 1.5c0 2.461 2.406 1.686 3.75-1.207.688-1.481 1.25-3.277 1.25-3.992 0-1.982 31.76-1.798 34.397.199 1.044.79 2.316 1.177 2.827.862.515-.318.784.696.603 2.273-.225 1.963-.949 2.926-2.327 3.098l-2 .25 2-.921c1.646-.758 1.7-.934.309-.992-.93-.038-1.969.38-2.309.93-.34.55-4.735 1-9.767 1h-9.149l-3.762 3.674c-3.429 3.348-3.993 3.569-6.356 2.492-1.984-.904-2.423-.905-1.866-.004.481.778.202.976-.823.583-1.152-.443-1.421-.101-1.047 1.33.277 1.059 1.238 1.961 2.137 2.004 1.265.061 1.315.205.22.638-.777.307-2.014-.265-2.75-1.271-.735-1.005-1.337-1.347-1.337-.76 0 2.263 3.045 3.767 5.068 2.504 1.048-.655 2.498-1.19 3.222-1.19.725 0 2.844-1.575 4.71-3.5 3.368-3.475 3.456-3.5 12.137-3.5 4.81 0 9.006.422 9.325.939.319.516 1.499.761 2.621.545 1.703-.328 1.989.055 1.729 2.311-.311 2.694-.35 2.706-9.312 2.97l-9 .265-7.269 7.485c-7.047 7.256-7.416 7.485-12.05 7.485-2.63 0-5.324-.543-5.988-1.207-1.791-1.791-4.613 1.309-3.728 4.095.689 2.173 3.936 2.89 5.035 1.112.34-.55 2.964-1 5.831-1h5.212l6.793-7.5 6.792-7.5h5.95c5.456 0 9.482 1.217 11.034 3.335.336.46 1.011.91 1.5 1 .488.091.961 5.501 1.05 12.023l.163 11.857-3.446 3.026c-1.896 1.664-3.239 3.233-2.985 3.486 1.138 1.138-6.355 6.273-9.154 6.273-1.647 0-3.555.675-4.24 1.5-.854 1.029-3.134 1.5-7.266 1.5-5.703 0-6.198-.199-9.336-3.75-1.823-2.062-3.333-3.161-3.356-2.441-.023.72-.499 1.026-1.058.681-.559-.346-.813-.957-.565-1.359s-.466-1.304-1.588-2.005c-1.122-.7-1.771-.838-1.441-.305.329.533-.097 1.236-.948 1.563-1.036.397-1.315.185-.847-.645.531-.942.399-.963-.548-.09-2.518 2.323-.238 5.609 3.416 4.924 2.89-.542 3.58-.206 5.954 2.907 2.641 3.462 2.805 3.52 10.011 3.52 5.293 0 7.673-.416 8.572-1.5.685-.825 2.741-1.5 4.57-1.5 2.918 0 4.189-.998 10.377-8.148l7.053-8.148v-12.425c0-11.295.159-12.395 1.75-12.09 1.546.297 1.783 1.9 2.03 13.745l.28 13.408-3.047 3.145c-1.677 1.729-2.74 3.452-2.364 3.829.376.376.206.684-.379.684s-3.923 3.238-7.417 7.195c-3.494 3.958-5.678 6.801-4.853 6.319.825-.482-.75 1.212-3.5 3.765s-5.675 4.704-6.5 4.781c-.825.077-.375.5 1 .94l2.5.801-2.75.099c-2.645.096-2.756-.1-2.9-5.15l-.15-5.25-.7 4.5-.7 4.5-.15-5.191c-.146-5.054-1.343-7.424-2.667-5.282-.36.584-.111 1.716.553 2.517 1.049 1.263-.703 1.456-13.243 1.456-13.127 0-14.445-.16-14.372-1.75.089-1.976-1.847-2.908-2.056-.989-.074.682-.186 3.178-.25 5.548-.068 2.56-.516 4.061-1.104 3.698-.566-.35-.734.051-.393.941.46 1.197-.114 1.552-2.511 1.552-3.667 0-3.978-.714-.857-1.969 1.698-.682 1.825-.92.517-.968-2.023-.074-6.817-8.809-7.703-14.035-.713-4.204-5.311-5.238-5.875-1.321-.324 2.252 2.871 4.835 4.339 3.508.435-.393.499.096.143 1.087-.439 1.221-.275 1.571.51 1.086.781-.483.944-.157.5 1-.443 1.156-.28 1.482.5 1 .781-.483.944-.157.5 1-.443 1.156-.28 1.482.5 1 .781-.483.944-.157.5 1-.443 1.156-.28 1.482.5 1 .781-.483.944-.157.5 1-.443 1.156-.28 1.482.5 1 .781-.483.944-.157.5 1-.413 1.078-.266 1.474.397 1.064.627-.388.927.099.739 1.198-.262 1.528.337 1.85 3.434 1.85h3.75v4.691c-.001 4.336 1.869 7.698 2.773 4.986.477-1.43 3.226-1.581 3.226-.177 0 .55.675 1 1.5 1s1.5-.45 1.5-1 .9-1 2-1 2 .505 2 1.122c0 .776.464.738 1.5-.122 1.197-.993 1.803-.993 3 0s1.803.993 3 0 1.803-.993 3 0 1.803.993 3 0c1.183-.982 1.811-.987 2.972-.023 1.563 1.297 4.528-.606 4.528-2.906 0-.608 2.051-1.079 4.75-1.091l4.75-.019 15.25-17.455L332 261.051V231.01l4.654-2.188c3.899-1.832 4.345-2.309 2.75-2.934-1.828-.717-1.824-.751.096-.833 1.517-.065 1.671-.294.639-.948-.748-.474-2.11-.666-3.027-.426-3.49.913-2.466-4.623 1.145-6.193 2.443-1.062 2.749-1.437 1.243-1.519l-2-.11 2-.859c2.041-.877.83-1.399-2.53-1.09-3.172.292-2.236-4.895 1.141-6.314 2.452-1.032 2.749-1.436 1.429-1.942-.917-.352-1.401-1.07-1.075-1.597.325-.526-.322-1.445-1.437-2.042-2.799-1.498-2.553-2.482 1.222-4.9 2.326-1.49 2.736-2.086 1.441-2.098-.995-.009-1.545-.444-1.222-.967.323-.522-.326-1.438-1.441-2.035-2.916-1.561-2.502-3.317 1.165-4.94 2.849-1.261 2.983-1.495 1.25-2.174-1.897-.743-1.896-.762.057-.846 1.517-.065 1.671-.294.639-.948-.748-.474-2.119-.663-3.047-.421-3.218.842-2.049-4.851 1.275-6.21 2.32-.948 2.547-1.295 1.187-1.817-.924-.355-1.4-1.099-1.057-1.654.886-1.434-3.85-3.005-9.062-3.005H325v-24.169l-10.25-11.26c-5.637-6.193-10.475-10.942-10.75-10.553-.275.389-2.525.375-5-.031-2.768-.453-3.538-.812-2-.932 2.293-.179 2.334-.262.5-1-1.1-.443-2.306-.629-2.681-.414-.374.216-1.006-.135-1.404-.779-.452-.731-.291-.903.43-.457 1.521.939 1.487-.673-.045-2.205-2.147-2.147-41.099-1.649-43.015.55m.087 1c-1.226 1.563-1.196 1.612.28.459 1.254-.98 6.488-1.221 21.751-1 11.054.16 20.099-.047 20.098-.459-.002-1.803-40.688-.837-42.129 1m5.533 7.5c-1.903 2.248-1.903 2.248.174.5 1.769-1.489 4.222-1.75 16.462-1.75h14.384l2.37 2.75 2.37 2.75-2.15-3.25-2.151-3.25h-14.777c-14.093 0-14.865.104-16.682 2.25m49.595.102c.825 1.102 4.984 5.861 9.243 10.576l7.743 8.572.222 12 .222 12 .318-11.852.317-11.852-5.453-6.148c-7.224-8.145-14.493-15.807-12.612-13.296m-54.128 5.398c-1.243 1.586-1.208 1.621.378.378 1.666-1.307 2.195-2.128 1.372-2.128-.207 0-.995.787-1.75 1.75M269.29 134c-.583 2.229-5.638 2.864-6.874.864-.977-1.581-4.377 3.075-3.642 4.988.348.907.144 1.216-.528.8-.916-.566-6.237 5.341-5.492 6.098 1.456 1.479-.899 2.25-6.876 2.25-6.218 0-6.965-.191-5.878-1.5 1.296-1.562.855-1.839-2.5-1.57-1.694.135-1.77-.012-.5-.961 1.249-.934 1.257-1.056.05-.728-2.162.585-1.932 6.283.25 6.176.935-.046 4.968-.159 8.962-.25l7.261-.167 4.743-6.54c4.71-6.493 4.774-6.537 9.143-6.25 2.419.16 4.191.628 3.936 1.04-.255.412-.002.75.561.75 1.897 0 3.357-3.978 2.041-5.564-1.706-2.055-4.047-1.771-4.657.564m26.21-1.262c2.235.225 5.068 1.364 6.42 2.582l2.419 2.18-1.919-2.719c-1.638-2.319-2.581-2.698-6.42-2.581l-4.5.136 4 .402m-47.05 4.195c-.522.513-2.75 1.113-4.95 1.332l-4 .399 4.643.168c3.319.12 4.807-.26 5.219-1.332.664-1.732.425-1.88-.912-.567m30.233 2.88c-2.048 2.097-3.415 4.122-3.037 4.5.378.378-.989.687-3.038.687-2.098 0-3.47-.415-3.139-.95 1.011-1.636-3.372-3.375-5.033-1.997-3.188 2.646.123 7.328 3.632 5.137 1.048-.655 3.598-1.19 5.668-1.19 3.103 0 4.254-.615 6.557-3.5 3.953-4.954 10.381-5.075 14.763-.277 1.619 1.772 2.944 4.022 2.944 5 0 .977.675 1.777 1.5 1.777 2.627 0 1.621-4.325-1.977-8.5-1.896-2.2-3.464-3.55-3.484-3-.021.608-2.485.816-6.287.531l-6.252-.469 6-.613 6-.613-5.547-.168c-5.203-.158-5.778.069-9.27 3.645m.241.937-2.424 2.75 2.75-2.424c1.512-1.334 2.75-2.571 2.75-2.75 0-.785-.81-.146-3.076 2.424m17.229.75c1.459 1.65 2.869 3.9 3.134 5 .468 1.948.484 1.946.597-.063.065-1.163-1.302-3.344-3.134-5l-3.25-2.937 2.653 3m-31.773 1.952c-.682 1.777.318 3.576 1.929 3.469.859-.057.842-.22-.059-.583-.687-.278-1.25-1.105-1.25-1.838 0-.733.563-1.56 1.25-1.838.979-.395.972-.521-.031-.583-.705-.043-1.533.574-1.839 1.373m44.62-.777c0 .513 1.56 2.445 3.467 4.293 3.447 3.341 3.469 3.418 3.789 13.446l.322 10.086.17-10 .17-10-3.959-4.379c-2.177-2.408-3.959-3.959-3.959-3.446m-37.187 1.008c.721.289 1.584.253 1.916-.079.332-.332-.258-.568-1.312-.525-1.165.048-1.402.285-.604.604m-12.305 5.304c-.374.605-.079 1.842.656 2.749 1.14 1.406 1.116 1.526-.164.815-1.047-.581-.974-.275.243 1.015 1.361 1.444 2.007 1.584 2.95.641.664-.664 3.729-1.207 6.811-1.207 5.091 0 5.914.32 8.996 3.5 2.607 2.69 4.215 3.505 6.946 3.524 2.976.019 4.037.676 6.526 4.04l2.973 4.017 6.527-.29 6.528-.291.29-7.064c.298-7.247-2.81-14.64-4.8-11.42-.469.758-2.756 1.058-6.362.834l-5.631-.35-.155 4c-.154 3.939-.167 3.924-.842-1l-.686-5-.157 4.75c-.155 4.703-.19 4.75-3.553 4.75-2.63 0-4.091-.79-6.47-3.5-2.9-3.304-5.022-4.746-3.603-2.45.434.702-1.45.951-5.691.75-4.836-.229-6.34-.656-6.34-1.8 0-1.781-4.014-2.596-4.992-1.013m39.242 1.813-5.75.3v4.776c0 6.102 2.613 8.827 9 9.383l4.5.392-5.076.174c-5.149.178-8.19-1.646-9.718-5.825-.472-1.292-.559-1.284-.627.063-.175 3.459 5.203 6.937 10.726 6.937H307v-7.378c0-8.741-.456-9.229-8.25-8.822m-19.088 4.45c2.51 3.317 3.3 3.731 6.838 3.582l4-.168-3.822-.397c-2.677-.278-4.725-1.35-6.838-3.582l-3.015-3.185 2.837 3.75m17.086-.464c.326.848.178 1.286-.328.974-.506-.313-.92.426-.92 1.642 0 1.423.65 2.259 1.826 2.348 1.397.105 1.57-.17.737-1.174-.799-.963-.711-1.624.336-2.492 1.707-1.416 3.099.175 2.201 2.516-.327.852-.149 1.239.411.893.544-.336.989-.183.989.341 0 1.334-2.663 2.208-4.75 1.559-1.637-.509-1.635-.47.02.592 3.845 2.469 8.593-2.808 6.094-6.77-1.33-2.108-7.411-2.501-6.616-.429m5.077 1.888c.426 2.093.678 2.345.969.97.217-1.021-.043-2.293-.576-2.826-.626-.626-.766.031-.393 1.856m-48.42 6.576c-1.903 2.248-1.903 2.248.174.5 1.657-1.395 3.984-1.75 11.471-1.75h9.392l6.029 5.75 6.029 5.75-5.969-6.25-5.968-6.25h-9.627c-8.751 0-9.799.204-11.531 2.25M247 170.5c-2.429 2.475-4.191 4.5-3.916 4.5.275 0 2.487-2.025 4.916-4.5 2.429-2.475 4.191-4.5 3.916-4.5-.275 0-2.487 2.025-4.916 4.5m65.75 1.162c.688.278 1.813.278 2.5 0 .688-.277.125-.504-1.25-.504s-1.937.227-1.25.504m5.5.027c.962.252 2.538.252 3.5 0 .962-.251.175-.457-1.75-.457s-2.712.206-1.75.457m8.518.036c1.797.222 4.497.218 6-.01 1.503-.229.032-.411-3.268-.405-3.3.005-4.529.192-2.732.415m-12.128 1.969c-.382.381-.655 12.997-.608 28.035l.087 27.342 9.69-.286 9.691-.285.266-27.75.266-27.75h-9.35c-5.142 0-9.661.312-10.042.694m-73.076 5.013c-.542 1.425-.428 1.54.56.56.684-.679.991-1.486.683-1.793-.308-.308-.867.247-1.243 1.233m28.178-.965c6.889.328 7.377.514 10 3.802L282.5 185l13.5-.218 13.5-.219-13.306-.311-13.307-.311-3.047-3.47c-2.986-3.402-3.19-3.467-10.194-3.272l-7.146.198 7.242.345m53.258.228 5.5.704-4.713.163-4.713.163-.287 22.001-.287 22.001 5.269-.001 5.269-.001-.269-22.75-.269-22.75-5.5-.117-5.5-.118 5.5.705m-64.267 1.154c.679.684 1.486.991 1.793.683.308-.308-.247-.867-1.233-1.243-1.425-.542-1.54-.428-.56.56m6.774 6.865c-.35.566.051.734.941.393 1.732-.665 2.049-1.382.611-1.382-.518 0-1.216.445-1.552.989m-26.59.428c-.046.046-.199 1.137-.34 2.426-.311 2.837 1.948 3.935 4.64 2.254 2.188-1.367 14.95-1.176 14.093.211-.293.473.53.71 1.829.526 3.337-.472 3.441-5.332.111-5.167-6.665.329-6.92.4-4.75 1.333 1.392.598-.052.881-4.75.93-4.526.047-6.668-.302-6.5-1.059.182-.821-3.67-2.113-4.333-1.454m32.759 1.587c1.197.482 3.194 2.254 4.438 3.936l2.262 3.06h15.253c8.389 0 15.462-.338 15.718-.75.257-.412-6.461-.616-14.928-.451l-15.394.299-3.116-3.549c-1.714-1.952-3.857-3.52-4.763-3.486-1.175.046-1.023.315.53.941m-3.407 12.689c.973.254 2.323.237 3-.037.677-.274-.119-.481-1.769-.461-1.65.02-2.204.244-1.231.498m5.017 3.807c.008 2.75.202 3.756.432 2.236.229-1.52.223-3.77-.014-5-.237-1.23-.425.014-.418 2.764m-6.286 1c0 3.176.255 3.491 2.75 3.4l2.75-.099L270 208c-2.398-.768-2.409-.805-.25-.9 3.462-.154 3.22-5.1-.25-5.1-2.19 0-2.5.433-2.5 3.5m25-1.5-17.5.572 17 .199c9.649.112 17.649-.221 18.5-.771.825-.533 1.05-.88.5-.771-.55.11-8.875.457-18.5.771m-25.921 7.583c.048 1.165.285 1.402.604.605.289-.722.253-1.585-.079-1.917-.332-.332-.568.258-.525 1.312M286 218.5c-1.866 1.925-4.092 3.536-4.946 3.579-1.158.059-1.212.215-.213.614.738.294 2.989-1.074 5.002-3.04 3.64-3.554 3.719-3.576 13.659-3.905l9.998-.329-10.054-.21-10.054-.209-3.392 3.5m-45.7 1.16c-1.25 3.259 3.403 6.248 5.2 3.34.864-1.397 18.105-1.264 20.381.158 2.606 1.627 5.332.344 4.939-2.325-.344-2.341-3.737-3.223-6.035-1.569-.911.656-.761.755.517.342 1.057-.342 1.549-.174 1.191.405-.889 1.439-21.562 1.303-21.243-.14.358-1.618-4.333-1.818-4.95-.211m48.169 11.59-5.969 6.25 6-5.708 6-5.708 7.5-.343 7.5-.344-7.531-.198-7.532-.199-5.968 6.25M309 227.383c0 .211.901.619 2.001.907 1.101.288 1.75.115 1.441-.383-.538-.871-3.442-1.313-3.442-.524m10.776.35c2.352.212 5.952.209 8-.006s.124-.388-4.276-.384c-4.4.003-6.076.179-3.724.39M240.3 229.66c-1.267 3.303 3.411 6.234 5.237 3.281.418-.678 5.472-.985 14.026-.852 7.354.114 13.135.591 12.845 1.059-.289.469.37.852 1.466.852 1.935 0 3.763-3.16 2.764-4.777-.271-.438-1.762-.703-3.315-.59-1.553.112-4.623.309-6.823.436l-4 .231 4.5.7c3.104.483.391.746-8.75.85-9.392.106-13.177-.179-13-.979.358-1.618-4.333-1.818-4.95-.211m85.344 1.03c-.354.354-.644 6.653-.644 13.997v13.354l-13.643 15.73c-10.912 12.581-14.214 15.792-16.5 16.042-1.671.184-2.857.91-2.857 1.75 0 1.841 7.98 1.99 10.002.187 1.187-1.058 1.205-.989.12.448-.789 1.047-3.074 1.841-5.952 2.07l-4.67.372 4.559.18c4.387.173 4.746-.037 9.5-5.556 2.718-3.155 8.065-9.342 11.884-13.75 4.493-5.186 5.552-6.779 3-4.514l-3.943 3.5 3.446-3.75c1.896-2.062 3.814-3.75 4.264-3.75.45 0 2.149-1.462 3.775-3.25l2.956-3.25.03-15.032.029-15.032-2.356-.195c-1.296-.107-2.646.095-3 .449M316.385 243c0 6.875.16 9.688.355 6.25.196-3.437.196-9.062 0-12.5-.195-3.437-.355-.625-.355 6.25m7.01 1.5c.001 7.7.158 10.718.348 6.706.191-4.011.189-10.311-.002-14-.192-3.688-.348-.406-.346 7.294m-81.582-11.817c.721.289 1.584.253 1.916-.079.332-.332-.258-.568-1.312-.525-1.165.048-1.402.285-.604.604m52.868 5.249c-2.445 2.706-4.586 4.059-6.867 4.34-3.004.37-2.924.423.863.568 3.202.123 4.297-.248 4.692-1.59.4-1.357.469-1.301.306.25-.179 1.707-.984 2.015-5.491 2.099-2.923.055-5.818.679-6.483 1.397-.953 1.029-.891 1.146.299.564.825-.403.375.195-1 1.331-1.874 1.548-4.128 2.118-9 2.279l-6.5.215 6.337.358c4.172.235 6.906-.087 8-.943 1.488-1.163 1.519-1.116.291.45-1.669 2.128-16.32 2.654-15.878.571.137-.649-.832-1.199-2.155-1.223-1.743-.031-2.499.578-2.748 2.212-.418 2.739 2.135 3.995 4.772 2.348 1.02-.637 4.938-1.158 8.707-1.158 6.58 0 6.982-.142 10.091-3.559 4.72-5.187 8.46-4.636 8.89 1.309.299 4.125.41 4.25 3.782 4.25 4.686 0 5.44 2.316 1.943 5.966-1.5 1.566-2.571 3.227-2.38 3.691.418 1.013-8.728 1.72-10.997.849-1.178-.452-1.278-.812-.38-1.367.85-.525.114-1.795-2.428-4.196-2.006-1.894-3.313-2.856-2.904-2.138.58 1.019-.431 1.239-4.6 1-3.947-.225-5.343-.697-5.343-1.805 0-2.061-3.534-1.893-4.874.231-1.679 2.663 1.648 5.703 4.377 3.999 3.955-2.47 9.309-1.535 12.997 2.27 5.138 5.301 12.957 5.176 18.297-.292 2.037-2.086 3.703-4.786 3.703-6 0-1.909.541-2.208 4-2.208h4v-20h-6.384c-6.16 0-6.508.138-9.935 3.932m1.243-.182-2.424 2.75 2.5-2.187c1.651-1.443 4.198-2.316 7.5-2.569l5-.384-5.076-.18c-4.4-.156-5.398.186-7.5 2.57M309 236c0 .55-2.172 1-4.826 1-6.485 0-9.174 2.73-9.174 9.314 0 4.593.064 4.689 3.25 4.818l3.25.131-3.5.737c-2.887.608-2.307.76 3.309.868 5.206.101 6.632-.162 6.058-1.118-.51-.849-.209-.81.941.122 1.566 1.271 1.692.693 1.692-7.75 0-5.017-.225-9.122-.5-9.122s-.5.45-.5 1m-42.493 2.989c-.35.566.051.734.941.393 1.732-.665 2.049-1.382.611-1.382-.518 0-1.216.445-1.552.989m14.943-.049c-.522.517-3.2 1.111-5.95 1.32l-5 .38 5.128.18c3.514.123 5.519-.292 6.372-1.32 1.367-1.647.964-2.058-.55-.56m16.795 2.473c-1.124 1.818-.81 5.254.479 5.254.702 0 1.276-.878 1.276-1.95 0-1.442.509-1.817 1.952-1.44 1.074.281 2.163-.004 2.421-.633s.505-.105.548 1.165c.048 1.395-.343 2.048-.988 1.65-.64-.396-.94.08-.75 1.191.256 1.493-.261 1.811-2.683 1.646-2.479-.168-2.693-.027-1.23.811 3.961 2.271 8.562-2.979 6.072-6.927-1.081-1.713-6.173-2.263-7.097-.767m-31.512.711c.679.684 1.486.991 1.793.683.308-.308-.247-.867-1.233-1.243-1.425-.542-1.54-.428-.56.56M293.272 249c0 2.475.195 3.488.434 2.25.238-1.238.238-3.262 0-4.5-.239-1.238-.434-.225-.434 2.25m9.478 2.662c.688.278 1.813.278 2.5 0 .688-.277.125-.504-1.25-.504s-1.937.227-1.25.504m-38.37 4.79c-.682 1.777.318 3.576 1.929 3.469.859-.057.842-.22-.059-.583-.687-.278-1.25-1.105-1.25-1.838 0-.733.563-1.56 1.25-1.838.979-.395.972-.521-.031-.583-.705-.043-1.533.574-1.839 1.373m36.699-.507c-.043.795-1.306 2.82-2.806 4.5l-2.727 3.055 3.347-3.139c1.856-1.741 3.106-3.746 2.806-4.5-.436-1.096-.556-1.079-.62.084m-59.631 1.971c.369.596.138 1.084-.511 1.084-.834 0-.778.499.191 1.692 1.181 1.457 1.163 1.585-.128.926-.825-.422-.624-.056.446.812 1.303 1.055 2.279 1.245 2.95.574 2.423-2.423 10.997-1.158 13.064 1.928 1.079 1.609 2.316 2.706 2.75 2.438.435-.268.79.439.79 1.571 0 1.264.676 2.089 1.75 2.138 1.289.058 1.378.226.337.638-.777.307-2.066-.291-2.865-1.329-.805-1.048-1.263-1.252-1.027-.459.825 2.779 3.793 3.745 5.295 1.724 1.415-1.904 1.027-4.653-.656-4.653-.524 0-.674.45-.334 1s.442 1 .227 1c-.214 0-1.876-2.292-3.691-5.094-2.053-3.168-3.571-4.658-4.015-3.939-1.102 1.782-10.521.917-10.521-.967 0-.825-1.062-1.65-2.361-1.834-1.503-.213-2.118.06-1.691.75m69.476 1.834-2.424 2.75 2.75-2.424c1.512-1.334 2.75-2.571 2.75-2.75 0-.785-.81-.146-3.076 2.424m-30.413.627c.946 1.443 1.908 2.623 2.139 2.623.724 0-1.605-3.854-2.759-4.567-.604-.374-.325.501.62 1.944m38.413 1.373-2.424 2.75 2.75-2.424c1.512-1.334 2.75-2.571 2.75-2.75 0-.785-.81-.146-3.076 2.424m7.649 1.156-2.928 3.594 3.376-3.218c1.857-1.77 3.175-3.387 2.928-3.594-.247-.207-1.766 1.241-3.376 3.218m-69.603.038c.573 1.07 1.535 2.25 2.139 2.623.604.374.325-.501-.62-1.944-2.002-3.055-3.038-3.518-1.519-.679m48.435 3.306-1.905 2.25 2.25-1.905c2.114-1.79 2.705-2.595 1.905-2.595-.19 0-1.202 1.012-2.25 2.25m-36.672-.126c.679.684 1.486.991 1.793.683.308-.308-.247-.867-1.233-1.243-1.425-.542-1.54-.428-.56.56m9.213 3.126c3.269 3.557 3.764 3.75 9.628 3.75 4.168 0 6.571-.47 7.38-1.444.659-.794 2.851-1.619 4.872-1.832l3.674-.388-3.628-.168c-2.181-.101-4.123.43-4.872 1.332-2.541 3.062-12.863 1.996-16.952-1.75l-3.548-3.25 3.446 3.75M310 272c-2.859 3.3-4.973 6-4.698 6 .275 0 2.839-2.7 5.698-6 2.859-3.3 4.973-6 4.698-6-.275 0-2.839 2.7-5.698 6m2.946 6.75-3.446 3.75 3.75-3.446c2.063-1.896 3.75-3.583 3.75-3.75 0-.764-.846-.044-4.054 3.446m-48.307-2.056c-1.195 1.195-.645 3.306.861 3.306.825 0 1.5-.648 1.5-1.441 0-1.671-1.427-2.798-2.361-1.865m5.79 1.432c0 1.044.438 1.752.973 1.573 1.57-.523 1.796-2.409.355-2.962-.817-.314-1.328.221-1.328 1.389m6.292-.411c.455 1.187.244 1.399-.801.802-1.103-.63-1.161-.529-.257.449.639.693 1.652.957 2.25.588 1.517-.938 1.355-2.237-.362-2.896-1.018-.391-1.265-.076-.83 1.057m5.926-.192c.527 1.372.352 1.61-.727.994-1.15-.656-1.182-.554-.17.536.867.935 1.569 1.028 2.292.305.724-.724.563-1.441-.523-2.342-1.339-1.112-1.465-1.039-.872.507m16.79 6.727-2.937 3.25 3.25-2.937c1.788-1.615 3.25-3.078 3.25-3.25 0-.773-.825-.092-3.563 2.937m-39.639 1.354c-.283 2.422.023 3.774.934 4.123 1.777.682 3.053-.624 1.529-1.566-.83-.513-.612-1.085.733-1.925 1.208-.755 2.136-.834 2.519-.216 1.184 1.916 11.612 1.204 11.281-.77-.215-1.278.38-1.75 2.206-1.75 2 0 2.5.5 2.5 2.5 0 2.488-.037 2.498-8.045 2.151-6.453-.28-8.308-.033-9.373 1.25-.73.879-1.898 1.599-2.595 1.599-.705 0-1.45 1.555-1.677 3.5l-.408 3.5 15.049-.191c14.322-.183 14.59-.222 5.549-.809l-9.5-.617 9.25-.192c9.149-.189 9.25-.218 9.25-2.691 0-2.737-1.721-3.39-2.638-1-.437 1.137-2.302 1.504-7.719 1.515-3.929.009-7.777.417-8.552.908-1.597 1.01-4.091.347-4.091-1.089 0-.524.495-.646 1.1-.272.767.474.754.033-.043-1.456-.926-1.729-.847-2.249.413-2.733 1.776-.681 4.787 1.402 3.96 2.74-.301.488 2.377.887 5.952.887 3.835 0 6.793-.473 7.213-1.155.471-.761.235-.902-.69-.414-.773.406.057-.643 1.845-2.332 6.584-6.221 5.207-7.099-11.141-7.099h-14.39l-.421 3.604m46.148 1.146-3.446 3.75 3.75-3.446c2.063-1.896 3.75-3.583 3.75-3.75 0-.764-.846-.044-4.054 3.446m-28.133-2.067c.721.289 1.584.253 1.916-.079.332-.332-.258-.568-1.312-.525-1.165.048-1.402.285-.604.604m8.059 5.067c-1.269 1.619-1.222 1.64.628.283 1.1-.807 2.188-1.594 2.417-1.75.229-.156-.054-.283-.628-.283s-1.662.788-2.417 1.75m-18.059.933c.721.289 1.584.253 1.916-.079.332-.332-.258-.568-1.312-.525-1.165.048-1.402.285-.604.604m7.451 1.035c1.52.229 3.77.223 5-.014 1.23-.237-.014-.425-2.764-.418-2.75.008-3.756.202-2.236.432m14.815.865c.048 1.165.285 1.402.604.605.289-.722.253-1.585-.079-1.917-.332-.332-.568.258-.525 1.312m-27.81 4.11c.973.254 2.323.237 3-.037.677-.274-.119-.481-1.769-.461-1.65.02-2.204.244-1.231.498M183 346v19h7.277c10.506 0 11.723-1.089 11.723-10.498 0-4.238-.463-7.67-1.087-8.056-.783-.484-.783-.976 0-1.759.598-.598 1.087-4.115 1.087-7.816 0-9.07-.899-9.871-11.071-9.871H183v19m31 0v19h6v-6.5c0-5.833.205-6.5 2-6.5 1.1 0 2 .593 2 1.318 0 .726.692 3.651 1.539 6.5 1.404 4.73 1.797 5.182 4.5 5.182 3.466 0 3.384.422 1.405-7.215-1.407-5.433-1.407-6.168 0-7.723 1.168-1.291 1.556-3.989 1.556-10.819 0-11.732-.462-12.243-11.071-12.243H214v19m37.638-16.693c-.835 3.325-7.638 34.724-7.638 35.251 0 .243 1.364.442 3.031.442 3.065 0 3.321-.304 4.405-5.25.535-2.443 1.05-2.75 4.614-2.75 4.084 0 4.276.187 5.386 5.25.493 2.25 1.144 2.75 3.583 2.75 1.64 0 2.98-.337 2.98-.75-.002-.971-6.903-33.199-7.602-35.5-.876-2.884-8.009-2.43-8.759.557M279 346v19h6v-38h-6v19m17 .063v19.064l3.25-.314 3.25-.313.5-9.779.5-9.779 3.467 10.076c3.431 9.974 3.497 10.073 6.5 9.779l3.033-.297.272-18.75.272-18.75H310l-.066 10.25-.067 10.25-3.683-10.249c-3.645-10.14-3.719-10.249-6.934-10.25L296 327v19.063M190 338c0 5.01.066 5.125 2.75 4.816 2.546-.292 2.75-.65 2.75-4.816 0-4.166-.204-4.524-2.75-4.816-2.684-.309-2.75-.194-2.75 4.816m30 1.5v6.627l3.25-.314 3.25-.313v-12l-3.25-.313-3.25-.314v6.627m35.834-1.982c-.314.54-.871 2.782-1.237 4.982-.366 2.2-.911 5.238-1.211 6.75-.5 2.523-.29 2.75 2.535 2.75 1.829 0 3.054-.507 3.017-1.25-.182-3.695-2.616-14.071-3.104-13.232M190 354c0 5.01.066 5.125 2.75 4.816 2.546-.292 2.75-.65 2.75-4.816 0-4.166-.204-4.524-2.75-4.816-2.684-.309-2.75-.194-2.75 4.816m-3 22.861c0 1.406-.566 1.753-2.311 1.42-1.323-.253-2.852.21-3.577 1.084-1.75 2.108-1.017 6.078 1.158 6.273 1.24.111 1.315.017.25-.313-1.931-.599-1.968-3.708-.064-5.289 2.247-1.865 3.739-.251 3.059 3.309-.447 2.343-.343 2.744.405 1.559 1.217-1.928 2.592-9.904 1.708-9.904-.345 0-.628.838-.628 1.861m6.098 3.119c-1.338 6.238-1.337 6.02-.039 6.02.582 0 .835-.362.562-.804-.273-.442-.059-2.751.476-5.132.535-2.38.776-4.525.535-4.765-.24-.24-.931 1.866-1.534 4.681m77.523-3.23c-.283.962-.774 3.55-1.092 5.75l-.577 4 1.274-3.488c1.907-5.221 5.232-5.491 4.436-.36-.544 3.512-.504 3.605.465 1.065 1.405-3.682.432-6.097-2.18-5.413-1.641.429-1.913.163-1.421-1.387.335-1.054.384-1.917.109-1.917s-.732.788-1.014 1.75m57.864 2.5c-.823 5.487-.803 6.146.19 6.466.454.146.925-2.206 1.047-5.225.265-6.545-.349-7.161-1.237-1.241m6.613.73c-1.338 6.238-1.337 6.02-.039 6.02.582 0 .835-.362.562-.804-.273-.442-.059-2.751.476-5.132.535-2.38.776-4.525.535-4.765-.24-.24-.931 1.866-1.534 4.681m-97.512 1.271c-2.282 4.112-2.482 4.87-.921 3.499 1.096-.962 2.582-1.75 3.303-1.75.722 0 1.903.788 2.626 1.75 1.138 1.515 1.242 1.213.775-2.25-1.111-8.236-1.819-8.389-5.783-1.249m23.587-3.592c-.688.738-.874 1.341-.413 1.341s.655 1.575.43 3.5c-.34 2.911-.096 3.487 1.451 3.421 1.052-.045 1.317-.298.609-.583-1.694-.684-1.588-5.045.147-6.038 1.069-.613 1.119-1.056.213-1.891-.861-.792-1.526-.724-2.437.25m29.558-.159c-.32 1.1-.825 3.575-1.123 5.5-.468 3.024-.342 2.89.93-.986.809-2.467 1.315-4.942 1.123-5.5-.191-.558-.61-.114-.93.986m18.606-.208c-1.442 2.081-.979 7.985.663 8.442 1.009.281 1.121.147.341-.41-1.467-1.05-.56-6.117 1.167-6.521 1.054-.247 1.05-.528-.019-1.511-1.027-.943-1.497-.943-2.152 0m-69.302 1.642c-1.382 2.584-1.309 3.066.465 3.066.933 0 1.5-.944 1.5-2.5 0-3.001-.573-3.166-1.965-.566m112.465-1.21c-3.103.762-4.25 2.087-4.25 4.908 0 1.428-.564 2.944-1.253 3.37-1.979 1.223-.166 2.998 3.062 2.998 2.274 0 2.941-.453 2.941-2 0-1.333-.667-2-2-2-2.702 0-2.553-1.78.183-2.18 1.401-.206 2.444-1.305 2.913-3.07.402-1.512.657-2.698.568-2.634-.09.064-1.064.337-2.164.608m-249.844 1.026c-.254.413-.67 2.775-.926 5.25s-.277 3.779-.047 2.898c.275-1.055 1.189-1.454 2.678-1.169 1.272.243 2.815-.236 3.527-1.094 1.825-2.199.999-6.047-1.388-6.465-1.936-.338-1.94-.304-.127 1.066 2.428 1.837 1.371 5.764-1.552 5.764-1.794 0-1.963-.427-1.387-3.5.615-3.279.279-4.467-.778-2.75m11.836 1.622c-2.1 3.204-.951 5.821 2.386 5.433 2.498-.291 3.783-2.155 4.022-5.837.169-2.586-4.647-2.283-6.408.404m12.175-1.705c-1.305 1.304-.636 3.208 1.348 3.838 2.516.798 1.453 2.851-1.128 2.176-1.038-.272-1.887-.086-1.887.413 0 1.443 3.637 1.049 4.954-.538.962-1.16.79-1.699-.878-2.741-2.644-1.651-2.691-3.209-.076-2.525 1.1.287 2 .115 2-.384 0-1.046-3.342-1.231-4.333-.239m10 0c-1.305 1.304-.636 3.208 1.348 3.838 2.516.798 1.453 2.851-1.128 2.176-1.038-.272-1.887-.086-1.887.413 0 1.443 3.637 1.049 4.954-.538.962-1.16.79-1.699-.878-2.741-2.644-1.651-2.691-3.209-.076-2.525 1.1.287 2 .115 2-.384 0-1.046-3.342-1.231-4.333-.239m9.465 3.083c-.158 5.081.92 5.426 3.123 1l1.617-3.25.064 3.25c.083 4.222 1.278 4.122 3.379-.284 2.282-4.786 2.063-5.809-.315-1.466l-1.916 3.5-.042-3.25c-.023-1.788-.437-3.25-.921-3.25-.483 0-1.494 1.462-2.246 3.25l-1.368 3.25-.622-3.5-.622-3.5-.131 4.25m14.914-2.305c-1.885 2.271-.892 6.006 1.694 6.373 2.518.358 4.964-3.542 3.923-6.254-.753-1.963-4.029-2.032-5.617-.119m10.94.523c-.007.843-.239 2.657-.514 4.032-.304 1.518.021 1.157.827-.921.729-1.882 2.198-3.765 3.264-4.185 1.563-.616 1.407-.734-.813-.61-1.73.096-2.755.72-2.764 1.684m28.1-.571c-2.763 3.329 1.099 8.818 4.096 5.821.626-.626.057-.795-1.606-.477-3.595.687-3.225-1.057.524-2.473 1.787-.674 2.918-1.72 2.671-2.469-.621-1.887-4.24-2.143-5.685-.402m11.228.227c-.375.977.036 1.992 1.032 2.549 2.321 1.3 2.067 3.168-.346 2.537-1.1-.287-2-.115-2 .384 0 .498.914.906 2.031.906 2.655 0 3.804-2.953 1.623-4.173-2.322-1.3-2.066-3.168.347-2.537 1.101.288 1.75.115 1.441-.383-.912-1.477-3.456-1.035-4.128.717m9.744-.194c-.95 1.144-.774 1.652.877 2.535 2.926 1.566 2.594 3.369-.511 2.776-1.663-.318-2.232-.149-1.606.477 1.389 1.389 4.605.54 4.961-1.309.166-.862-.729-2.048-1.989-2.635l-2.29-1.067 2.5-1.04c1.554-.647 1.884-1.064.872-1.104-.895-.034-2.161.581-2.814 1.367m28.549.152c-1.6 4.168-.719 6.458 2.393 6.221 1.926-.147 3.005-.779 3.014-1.766.007-.845.239-2.662.514-4.037.288-1.439-.074-1.015-.852 1-1.946 5.034-5.177 5.477-4.386.602.617-3.805.329-4.657-.683-2.02m46.976 1.754c-.929 4.642-.573 5.465.723 1.676 1.792-5.237 5.156-5.515 4.356-.36-.544 3.512-.504 3.605.465 1.065 1.419-3.718.493-5.746-2.51-5.497-1.838.152-2.597.932-3.034 3.116m20.264-.9c-1.828 4.013 2.366 8.264 4.595 4.657.309-.498-.289-.684-1.328-.413-1.038.272-2.191.005-2.56-.593-.396-.64.125-1.087 1.265-1.087 2.3 0 4.622-2.477 3.708-3.956-1.185-1.917-4.548-1.092-5.68 1.392m25.276-.936c-.083 1.1-.382 3.125-.665 4.5l-.514 2.5 1.071-2.453c.589-1.349.888-3.374.664-4.5-.396-1.994-.411-1.995-.556-.047m17.417.798c-.872 1.331-1.302 3.159-.956 4.061.672 1.751 3.926 2.243 4.858.734.309-.498-.289-.684-1.328-.413-1.038.272-2.157.06-2.485-.471-.328-.531.78-1.241 2.462-1.577 2.213-.443 2.966-1.096 2.723-2.361-.518-2.688-3.504-2.673-5.274.027M370.7 379c-.293.825-.777 2.85-1.075 4.5l-.542 3 1.506-3.359c.828-1.847 1.311-3.872 1.075-4.5-.272-.719-.628-.587-.964.359m3.18-.095c.877.555 1.213 2.006.923 3.984-.251 1.711-.136 3.111.257 3.111.842 0 1.718-5.166 1.16-6.84-.213-.638-1.137-1.153-2.053-1.145-1.338.013-1.395.188-.287.89m8.638.72c-.893.893-1.488 2.576-1.321 3.739.334 2.329 3.42 3.419 5.053 1.786.717-.717.379-.866-1.094-.481-1.417.371-2.341.013-2.756-1.068-.84-2.19 1.523-4.854 3.782-4.264 1.001.262 1.569.068 1.26-.43-.868-1.405-3.132-1.074-4.924.718m10.568-.228c-2.763 3.329 1.099 8.818 4.096 5.821.626-.626.057-.795-1.606-.477-3.595.687-3.225-1.057.524-2.473 1.787-.674 2.918-1.72 2.671-2.469-.621-1.887-4.24-2.143-5.685-.402m-277.981 1.407c-1.225 2.288.192 4.68 2.294 3.873 2.04-.783 2.157-5.677.136-5.677-.805 0-1.899.812-2.43 1.804m46.562-1.137c-1.236 1.235-.69 5.333.711 5.333 1.975 0 3.947-2.71 3.265-4.487-.597-1.558-2.797-2.026-3.976-.846m38.971.833c-.614 1.6.228 1.872 2.774.895.867-.332 1.328-1.007 1.023-1.5-.871-1.41-3.163-1.045-3.797.605m117.821-.433c-.363.586-.409 1.317-.102 1.623.822.823 3.643-.461 3.643-1.659 0-1.357-2.697-1.33-3.541.036m31 0c-.363.586-.409 1.317-.102 1.623.822.823 3.643-.461 3.643-1.659 0-1.357-2.697-1.33-3.541.036m11 0c-.363.586-.409 1.317-.102 1.623.822.823 3.643-.461 3.643-1.659 0-1.357-2.697-1.33-3.541.036m33.179.433c-.614 1.6.228 1.872 2.774.895.867-.332 1.328-1.007 1.023-1.5-.871-1.41-3.163-1.045-3.797.605m-111.825.183c.721.289 1.584.253 1.916-.079.332-.332-.258-.568-1.312-.525-1.165.048-1.402.285-.604.604M347.5 387c-.351.567.49 1 1.941 1 1.407 0 2.559-.45 2.559-1s-.873-1-1.941-1-2.219.45-2.559 1m-252.138 8.5c-1.023 2.664.449 4.5 3.607 4.5H102v32h6V400.127l3.25-.314c2.708-.261 3.303-.772 3.566-3.063l.317-2.75h-9.598c-7.609 0-9.717.311-10.173 1.5M125 413v19h19v-6h-13v-10h5c4.889 0 5-.067 5-3s-.111-3-5-3h-5v-10h13v-6h-19v19m31.655-17.171c-1.387 1.532-1.655 4.286-1.655 17 0 18.248.457 19.171 9.5 19.171 7.136 0 9.5-2.115 9.5-8.5 0-4.312-.123-4.5-2.937-4.5-2.58 0-2.974.393-3.25 3.242-.343 3.549-2.836 4.814-5.361 2.718-1.635-1.357-2.117-21.362-.574-23.797 1.527-2.408 5.585-.982 5.938 2.087.265 2.303.794 2.75 3.25 2.75 2.795 0 2.934-.206 2.934-4.345 0-6.04-2.041-7.655-9.674-7.655-4.558 0-6.417.443-7.671 1.829M185 413.063v19.064l3.25-.314 3.25-.313.292-7.75.292-7.75H198v16h6v-38h-6v16h-6v-16h-7v19.063m32.611-17.531c-2.279 2.278-2.863 7.093-2.467 20.336C215.586 430.683 216.391 432 225 432s9.414-1.317 9.856-16.132c.587-19.634-.42-21.868-9.856-21.868-3.928 0-6.362.505-7.389 1.532M246 413v19h18v-6h-12v-32h-6v19m31.611-17.468c-2.279 2.278-2.863 7.093-2.467 20.336C275.586 430.683 276.391 432 285 432s9.414-1.317 9.856-16.132c.587-19.634-.42-21.868-9.856-21.868-3.928 0-6.362.505-7.389 1.532m29.96.039c-1.296 1.297-1.571 4.348-1.571 17.444 0 18.579.22 18.997 9.973 18.97 8.553-.024 10.027-1.996 10.027-13.419V411h-5c-4.844 0-5 .09-5 2.883 0 2.043.583 3.036 2 3.407 4.614 1.206 1.616 9.219-3.195 8.537-2.266-.322-2.305-.537-2.305-12.827v-12.5l3.262-.314c2.936-.283 3.324-.008 3.875 2.75.521 2.603 1.065 3.064 3.618 3.064 2.988 0 3.002-.027 2.477-4.689-.325-2.88-1.221-5.195-2.322-6-2.611-1.91-13.853-1.725-15.839.26M337 413v19h6v-38h-6v19m17.228-.25.272 18.75 9.25.288 9.25.287V426h-12v-9.89l4.75-.305c4.35-.279 4.777-.537 5.066-3.055.309-2.68.187-2.75-4.75-2.75H361v-10h12v-6h-19.044l.272 18.75m33.085-17.964c-3.104 1.973-4.7 15.871-2.063 17.959.688.545 3.636 1.769 6.553 2.721l5.302 1.73-.302 4.152c-.396 5.424-4.908 6.32-5.803 1.152-.441-2.549-.97-3-3.51-3-2.894 0-2.984.14-2.789 4.367.291 6.332 2.351 8.133 9.299 8.133 7.13 0 8.908-1.707 9.692-9.308.917-8.885.259-10.087-6.67-12.185L391 408.683v-4.408c0-4.219.118-4.394 2.75-4.091 2.16.248 2.818.906 3.066 3.066.452 3.923 7.184 4.218 7.184.315 0-7.118-2.534-9.534-10-9.534-3.025 0-6.034.339-6.687.755M222.22 412.75l.28 12.75 2.75.316 2.75.317V400h-6.06l.28 12.75m60 0 .28 12.75 2.75.316 2.75.317V400h-6.06l.28 12.75" fill-rule="evenodd"/></svg>