<?xml version="1.0" standalone="no"?>
<!DOCTYPE svg PUBLIC "-//W3C//DTD SVG 20010904//EN"
 "http://www.w3.org/TR/2001/REC-SVG-20010904/DTD/svg10.dtd">
<svg version="1.0" xmlns="http://www.w3.org/2000/svg"
 width="550.000000pt" height="369.000000pt" viewBox="0 0 550.000000 369.000000"
 preserveAspectRatio="xMidYMid meet">

<g transform="translate(0.000000,369.000000) scale(0.100000,-0.100000)"
fill="#000000" stroke="none">
<path d="M34 3646 l-34 -34 0 -1775 0 -1775 26 -31 26 -31 2698 0 2698 0 26
31 26 31 0 1775 0 1775 -34 34 -34 34 -2682 0 -2682 0 -34 -34z m1747 -1465
c18 -22 19 -43 19 -351 0 -308 -1 -329 -19 -351 l-19 -24 -381 0 c-352 0 -382
1 -398 18 -16 16 -18 46 -21 345 -2 352 0 369 48 383 14 4 189 7 388 6 l364
-2 19 -24z m541 -218 l3 -118 33 -3 c24 -2 32 -8 32 -23 0 -17 -7 -19 -60 -19
l-60 0 0 140 0 140 25 0 24 0 3 -117z m274 99 c33 -26 44 -56 44 -117 0 -77
-21 -122 -65 -140 -30 -13 -39 -13 -69 -1 -43 18 -64 49 -72 107 -8 59 10 123
43 148 32 26 90 27 119 3z m234 -1 c0 -14 -10 -21 -35 -25 -46 -9 -69 -51 -62
-113 6 -56 30 -83 74 -83 36 0 36 0 27 -24 -8 -22 -73 -21 -100 2 -64 52 -67
179 -4 235 38 33 100 39 100 8z m270 -121 c38 -77 70 -142 70 -145 0 -3 -65
-5 -145 -5 l-145 0 72 145 c40 80 74 145 75 145 2 0 34 -63 73 -140z m369 124
c72 -51 66 -210 -9 -249 -31 -16 -118 -18 -112 -2 1 4 2 66 2 137 l0 130 48 0
c28 0 57 -7 71 -16z m211 -3 c0 -15 -8 -21 -32 -23 -28 -2 -34 -8 -36 -30 -3
-28 5 -33 51 -29 12 2 17 -5 17 -23 0 -23 -4 -26 -35 -26 -34 0 -35 -1 -35
-40 0 -39 1 -40 35 -40 31 0 35 -3 35 -25 0 -24 -3 -25 -60 -25 l-60 0 0 140
0 140 60 0 c53 0 60 -2 60 -19z m116 -76 c23 -101 19 -106 58 68 5 20 12 27
31 27 14 0 25 -3 25 -6 0 -5 -39 -162 -61 -247 -8 -31 -14 -38 -32 -35 -23 3
-43 58 -80 221 l-15 68 26 -3 c24 -3 28 -10 48 -93z m274 76 c0 -15 -8 -21
-32 -23 -28 -2 -34 -8 -36 -30 -3 -26 -1 -28 32 -28 32 0 36 -3 36 -25 0 -22
-4 -25 -35 -25 -34 0 -35 -1 -35 -40 0 -39 1 -40 35 -40 31 0 35 -3 35 -25 0
-24 -3 -25 -60 -25 l-60 0 0 140 0 140 60 0 c53 0 60 -2 60 -19z m92 -98 l3
-118 33 -3 c24 -2 32 -8 32 -23 0 -16 -7 -19 -55 -19 l-55 0 0 140 c0 133 1
140 20 140 18 0 20 -8 22 -117z m-862 -58 c0 -22 -4 -25 -40 -25 -36 0 -40 3
-40 25 0 23 4 25 40 25 36 0 40 -2 40 -25z m-1240 -209 c0 -9 -7 -12 -19 -9
-20 5 -51 -21 -51 -43 0 -29 21 -54 45 -54 14 0 25 -4 25 -10 0 -13 -46 -13
-70 0 -36 19 -34 97 4 122 20 13 66 9 66 -6z m124 1 c22 -16 26 -88 6 -112
-15 -18 -71 -20 -88 -3 -18 18 -15 94 4 112 19 20 54 21 78 3z m138 -4 c23
-20 24 -85 2 -107 -9 -9 -32 -16 -55 -16 l-39 0 0 70 0 70 37 0 c20 0 45 -7
55 -17z m78 -53 c0 -56 -3 -70 -15 -70 -12 0 -15 14 -15 70 0 56 3 70 15 70
12 0 15 -14 15 -70z m74 28 l26 -43 0 43 c0 31 4 42 15 42 12 0 15 -14 15 -70
0 -84 -14 -91 -51 -27 l-24 42 -3 -42 c-5 -70 -22 -49 -22 27 0 39 4 70 9 70
6 0 21 -19 35 -42z m176 28 c0 -8 -7 -12 -17 -10 -39 9 -65 -45 -40 -80 17
-24 47 -15 47 14 0 11 5 20 10 20 6 0 10 -16 10 -35 0 -32 -2 -35 -31 -35 -41
0 -65 15 -73 44 -7 27 8 76 27 88 21 13 67 9 67 -6z m130 -21 c6 -19 15 -35
19 -35 4 0 13 16 20 35 21 59 39 44 43 -35 2 -49 -1 -70 -9 -70 -7 0 -13 18
-15 43 l-3 42 -14 -27 c-18 -36 -37 -36 -48 -1 -9 27 -10 27 -16 -15 -9 -53
-27 -55 -27 -3 0 96 28 133 50 66z m190 25 c0 -5 -11 -10 -25 -10 -18 0 -25
-5 -25 -20 0 -13 7 -20 20 -20 11 0 20 -4 20 -10 0 -5 -9 -10 -20 -10 -13 0
-20 -7 -20 -20 0 -15 7 -20 25 -20 14 0 25 -4 25 -10 0 -5 -18 -10 -40 -10
l-40 0 0 70 0 70 40 0 c22 0 40 -4 40 -10z m110 1 c0 -5 -12 -11 -27 -13 -34
-4 -38 -32 -5 -36 31 -5 28 -22 -4 -22 -36 0 -29 -34 9 -38 42 -5 32 -22 -13
-22 l-40 0 0 70 0 70 40 0 c22 0 40 -4 40 -9z m110 -1 c0 -5 -7 -10 -15 -10
-12 0 -15 -13 -15 -60 0 -47 -3 -60 -15 -60 -12 0 -15 13 -15 60 0 53 -2 60
-20 60 -11 0 -20 5 -20 10 0 6 23 10 50 10 28 0 50 -4 50 -10z m100 -3 c0 -8
-10 -13 -21 -13 -33 1 -32 -17 1 -36 31 -18 39 -45 18 -66 -16 -16 -78 -16
-78 1 0 7 11 13 27 12 37 0 40 21 4 40 -50 25 -36 75 21 75 17 0 28 -5 28 -13z
m170 4 c0 -5 -9 -11 -20 -14 -17 -4 -20 -14 -20 -61 0 -43 -3 -56 -15 -56 -12
0 -15 13 -15 60 0 47 -3 60 -15 60 -8 0 -15 5 -15 10 0 6 23 10 50 10 28 0 50
-4 50 -9z m42 -18 c2 -20 9 -29 26 -31 19 -3 22 1 22 27 0 21 5 31 15 31 12 0
15 -14 15 -70 0 -56 -3 -70 -15 -70 -10 0 -15 10 -15 30 0 25 -4 30 -25 30
-21 0 -25 -5 -25 -30 0 -16 -4 -30 -10 -30 -6 0 -10 30 -10 70 0 68 15 98 22
43z m188 17 c0 -5 -11 -10 -25 -10 -18 0 -25 -5 -25 -20 0 -13 7 -20 20 -20
11 0 20 -4 20 -10 0 -5 -9 -10 -20 -10 -13 0 -20 -7 -20 -20 0 -15 7 -20 25
-20 14 0 25 -4 25 -10 0 -5 -18 -10 -40 -10 l-40 0 0 70 0 70 40 0 c22 0 40
-4 40 -10z m100 -60 c0 -56 -3 -70 -15 -70 -12 0 -15 14 -15 70 0 56 3 70 15
70 12 0 15 -14 15 -70z m74 28 l25 -43 1 43 c0 30 4 42 15 42 12 0 15 -14 15
-70 0 -84 -15 -92 -54 -27 l-25 42 -1 -42 c0 -24 -4 -43 -10 -43 -6 0 -10 30
-10 70 0 39 4 70 9 70 5 0 21 -19 35 -42z m166 33 c0 -5 -12 -11 -27 -13 -34
-4 -38 -32 -5 -36 12 -2 22 -7 22 -12 0 -5 -10 -10 -22 -12 -17 -2 -24 -11
-26 -30 -7 -56 -22 -26 -22 42 l0 70 40 0 c22 0 40 -4 40 -9z m40 -61 c0 -40
-4 -70 -10 -70 -6 0 -10 30 -10 70 0 40 4 70 10 70 6 0 10 -30 10 -70z m81 28
l24 -43 3 43 c5 69 22 48 22 -28 0 -38 -4 -70 -9 -70 -6 0 -21 19 -35 43 l-26
42 0 -42 c0 -32 -4 -43 -15 -43 -12 0 -15 14 -15 70 0 84 14 91 51 28z m109
-28 c0 -56 -3 -70 -15 -70 -12 0 -15 14 -15 70 0 56 3 70 15 70 12 0 15 -14
15 -70z m120 60 c0 -5 -7 -10 -15 -10 -12 0 -15 -13 -15 -60 0 -47 -3 -60 -15
-60 -12 0 -15 13 -15 56 0 47 -3 57 -20 61 -37 10 -20 23 30 23 28 0 50 -4 50
-10z m100 0 c0 -5 -11 -10 -25 -10 -18 0 -25 -5 -25 -20 0 -13 7 -20 20 -20
11 0 20 -4 20 -10 0 -5 -9 -10 -20 -10 -13 0 -20 -7 -20 -20 0 -15 7 -20 25
-20 14 0 25 -4 25 -10 0 -5 -18 -10 -40 -10 l-40 0 0 70 0 70 40 0 c22 0 40
-4 40 -10z m56 -21 c-3 -17 -6 -40 -6 -50 0 -11 -4 -19 -10 -19 -5 0 -10 23
-10 50 0 39 3 50 16 50 13 0 15 -7 10 -31z m4 -94 c0 -8 -7 -15 -15 -15 -8 0
-15 7 -15 15 0 8 7 15 15 15 8 0 15 -7 15 -15z"/>
<path d="M1285 2040 c-10 -11 -16 -29 -13 -43 3 -14 0 -24 -7 -24 -24 0 -86
-46 -101 -74 -17 -34 -11 -64 17 -79 15 -8 19 -22 19 -61 0 -94 48 -140 106
-102 16 10 25 13 21 6 -10 -16 70 -53 114 -53 42 0 59 15 59 51 0 20 7 30 30
39 17 7 44 28 61 47 36 41 36 81 1 99 -33 16 -36 22 -23 37 8 11 9 27 0 66
-13 63 -45 91 -85 72 -21 -9 -33 -7 -74 14 -59 30 -101 32 -125 5z m95 -9 c22
-7 19 -9 -25 -19 -56 -12 -70 -7 -41 14 21 15 28 16 66 5z m35 -45 c17 -12 18
-17 7 -40 -19 -41 -39 -43 -78 -5 -40 39 -42 46 -11 52 44 8 63 7 82 -7z m118
-3 c8 -10 19 -31 23 -47 7 -29 7 -29 -29 10 -32 35 -38 54 -18 54 4 0 15 -8
24 -17z m-21 -44 c10 -13 19 -35 20 -49 3 -22 -1 -25 -35 -28 -45 -4 -53 10
-37 68 12 45 24 47 52 9z m-287 -19 c-8 -16 -15 -38 -15 -50 0 -11 -7 -20 -15
-20 -23 0 -18 35 11 69 32 39 39 39 19 1z m92 -18 c13 -31 12 -33 -14 -43 -16
-6 -41 -13 -57 -16 -27 -6 -29 -5 -22 21 20 78 69 98 93 38z m88 -72 c0 -22
-29 -18 -33 3 -3 14 1 18 15 15 10 -2 18 -10 18 -18z m144 -39 c-6 -16 -21
-39 -35 -52 -21 -20 -26 -21 -39 -8 -7 8 -17 26 -20 40 -5 22 -2 28 22 37 34
13 66 20 75 15 4 -2 2 -16 -3 -32z m41 5 c0 -14 -12 -38 -26 -53 -14 -15 -23
-21 -20 -13 2 8 10 32 17 53 14 42 29 49 29 13z m-277 8 c15 -5 14 -18 -5 -82
-8 -27 -12 -31 -25 -21 -20 17 -43 64 -43 89 0 15 6 20 29 20 16 0 36 -3 44
-6z m-50 -103 c21 -17 22 -31 2 -31 -18 0 -41 35 -50 75 l-7 30 19 -30 c11
-16 27 -36 36 -44z m167 24 c29 -30 32 -37 20 -45 -30 -19 -110 -5 -110 19 0
11 40 61 49 61 4 0 23 -16 41 -35z m37 -80 c-7 -16 -49 -19 -82 -5 -17 7 -16
9 10 10 17 1 39 5 50 9 24 10 29 7 22 -14z"/>
<path d="M2496 2018 c-24 -34 -21 -133 4 -158 48 -48 95 -8 95 80 0 43 -5 63
-19 79 -25 27 -61 27 -80 -1z"/>
<path d="M2972 1925 l-52 -105 105 0 c126 0 143 18 21 22 l-84 3 33 65 32 64
22 -42 21 -42 -29 0 c-16 0 -33 -4 -36 -10 -4 -6 15 -10 50 -10 l55 0 -40 80
c-22 44 -41 80 -43 80 -1 0 -26 -47 -55 -105z"/>
<path d="M3397 2033 c-11 -10 -8 -181 3 -188 16 -10 47 13 60 45 17 42 7 110
-20 132 -24 19 -33 22 -43 11z"/>
<path d="M2134 1682 c-31 -20 -22 -92 12 -92 23 0 39 45 26 75 -12 26 -20 30
-38 17z"/>
<path d="M2260 1639 c0 -47 2 -50 23 -47 41 6 33 98 -9 98 -10 0 -14 -14 -14
-51z"/>
</g>
</svg>
